nColumns=19
nRows=63
DataType=double
version=3
OpenSimVersion=4.1
endheader
time	ground_force_calcn_r_vx	ground_force_calcn_r_vy	ground_force_calcn_r_vz	ground_force_calcn_r_px	ground_force_calcn_r_py	ground_force_calcn_r_pz	ground_force_calcn_r_mx	ground_force_calcn_r_my	ground_force_calcn_r_mz	ground_force_calcn_l_vx	ground_force_calcn_l_vy	ground_force_calcn_l_vz	ground_force_calcn_l_px	ground_force_calcn_l_py	ground_force_calcn_l_pz	ground_force_calcn_l_mx	ground_force_calcn_l_my	ground_force_calcn_l_mz
1.39167	0	0	0	0	0	0	0	0	0	7.28825	16.1665	-3.23466	0.789161	0	-0.247404	-0.946163	-2.09873	0.419924
1.4	0	0	0	0	0	0	0	0	0	0	0	0	0	0	0	0	0	0
1.40833	0	0	0	0	0	0	0	0	0	0	0	0	0	0	0	0	0	0
1.41667	0	0	0	0	0	0	0	0	0	0	0	0	0	0	0	0	0	0
1.425	0	0	0	0	0	0	0	0	0	0	0	0	0	0	0	0	0	0
1.43333	0	0	0	0	0	0	0	0	0	0	0	0	0	0	0	0	0	0
1.44167	0	0	0	0	0	0	0	0	0	0	0	0	0	0	0	0	0	0
1.45	0	0	0	0	0	0	0	0	0	0	0	0	0	0	0	0	0	0
1.45833	0	0	0	0	0	0	0	0	0	0	0	0	0	0	0	0	0	0
1.46667	0	0	0	0	0	0	0	0	0	0	0	0	0	0	0	0	0	0
1.475	0	0	0	0	0	0	0	0	0	0	0	0	0	0	0	0	0	0
1.48333	0	0	0	0	0	0	0	0	0	0	0	0	0	0	0	0	0	0
1.49167	-5.52044	25.7255	-11.3809	1.27203	0	-0.220699	0.267208	-1.2452	0.550875	0	0	0	0	0	0	0	0	0
1.5	-29.6579	74.4416	-22.779	1.35725	0	-0.280933	-0.584625	1.46741	-0.449025	0	0	0	0	0	0	0	0	0
1.50833	-81.0328	187.643	-38.0811	1.38285	0	-0.300154	-1.98639	4.59975	-0.933494	0	0	0	0	0	0	0	0	0
1.51667	-148.876	374.137	-52.7486	1.39063	0	-0.305511	-3.03164	7.61874	-1.07415	0	0	0	0	0	0	0	0	0
1.525	-188.096	598.246	-59.7573	1.38042	0	-0.308289	-3.09094	9.83084	-0.981978	0	0	0	0	0	0	0	0	0
1.53333	-178.304	834.711	-53.3785	1.34641	0	-0.311761	-2.1936	10.2691	-0.656695	0	0	0	0	0	0	0	0	0
1.54167	-166.964	1083.07	-31.38	1.3023	0	-0.316543	-1.27911	8.29741	-0.240403	0	0	0	0	0	0	0	0	0
1.55	-185.529	1320.04	4.25063	1.26518	0	-0.321105	-0.628094	4.46891	0.0143902	0	0	0	0	0	0	0	0	0
1.55833	-206.057	1519.74	45.4364	1.23448	0	-0.324643	0.0132022	-0.0973699	-0.00291112	0	0	0	0	0	0	0	0	0
1.56667	-194.42	1679.51	79.7072	1.20304	0	-0.32759	0.497832	-4.30055	-0.204099	0	0	0	0	0	0	0	0	0
1.575	-144.874	1804.89	98.1667	1.16869	0	-0.330019	0.58632	-7.30456	-0.397289	0	0	0	0	0	0	0	0	0
1.58333	-77.667	1892.42	101.579	1.13468	0	-0.331668	0.356412	-8.68428	-0.466145	0	0	0	0	0	0	0	0	0
1.59167	-12.0373	1938.22	97.3081	1.1029	0	-0.33213	0.05299	-8.53234	-0.428365	0	0	0	0	0	0	0	0	0
1.6	49.0233	1942.17	91.5	1.07212	0	-0.331588	-0.185376	-7.3441	-0.345997	0	0	0	0	0	0	0	0	0
1.60833	105.132	1901.62	85.7624	1.04155	0	-0.330846	-0.317714	-5.74679	-0.259179	0	0	0	0	0	0	0	0	0
1.61667	154.025	1813.01	79.9561	1.01169	0	-0.330413	-0.362224	-4.26369	-0.188034	0	0	0	0	0	0	0	0	0
1.625	191.505	1675.83	74.8482	0.983035	0	-0.330339	-0.363263	-3.17885	-0.141978	0	0	0	0	0	0	0	0	0
1.63333	217.468	1491.65	70.927	0.954858	0	-0.33035	-0.366457	-2.51359	-0.11952	0	0	0	0	0	0	0	0	0
1.64167	236.369	1263.06	66.3048	0.924846	0	-0.330136	-0.393331	-2.10179	-0.110335	0	0	0	0	0	0	0	0	0
1.65	246.518	1000.07	57.7094	0.890387	0	-0.329925	-0.42568	-1.7269	-0.0996509	0	0	0	0	0	0	0	0	0
1.65833	239.321	731.323	44.0306	0.851691	0	-0.329697	-0.411777	-1.25832	-0.0757593	0	0	0	0	0	0	0	0	0
1.66667	206.653	492.284	28.1623	0.815659	0	-0.328503	-0.302357	-0.720268	-0.0412047	0	0	0	0	0	0	0	0	0
1.675	155.338	304.2	14.6845	0.791285	0	-0.324777	-0.118033	-0.231145	-0.0111579	0	0	0	0	0	0	0	0	0
1.68333	101.085	170.986	6.05479	0.782737	0	-0.316225	0.061562	0.104133	0.00368745	0	0	0	0	0	0	0	0	0
1.69167	56.4783	85.1808	1.65932	0.783291	0	-0.30102	0.161105	0.24298	0.00473325	0	0	0	0	0	0	0	0	0
1.7	27.6476	36.629	-0.229967	0.777744	0	-0.27157	0.147696	0.195676	-0.00122851	0	0	0	0	0	0	0	0	0
1.70833	11.9521	14.4149	-0.812234	0.823378	0	-0.200863	0.0239741	0.0289141	-0.00162922	0	0	0	0	0	0	0	0	0
1.71667	0	0	0	0	0	0	0	0	0	0	0	0	0	0	0	0	0	0
1.725	0	0	0	0	0	0	0	0	0	0	0	0	0	0	0	0	0	0
1.73333	0	0	0	0	0	0	0	0	0	0	0	0	0	0	0	0	0	0
1.74167	0	0	0	0	0	0	0	0	0	0	0	0	0	0	0	0	0	0
1.75	0	0	0	0	0	0	0	0	0	0	0	0	0	0	0	0	0	0
1.75833	0	0	0	0	0	0	0	0	0	0	0	0	0	0	0	0	0	0
1.76667	0	0	0	0	0	0	0	0	0	0	0	0	0	0	0	0	0	0
1.775	0	0	0	0	0	0	0	0	0	0	0	0	0	0	0	0	0	0
1.78333	0	0	0	0	0	0	0	0	0	0	0	0	0	0	0	0	0	0
1.79167	0	0	0	0	0	0	0	0	0	0	0	0	0	0	0	0	0	0
1.8	0	0	0	0	0	0	0	0	0	0	0	0	0	0	0	0	0	0
1.80833	0	0	0	0	0	0	0	0	0	0	0	0	0	0	0	0	0	0
1.81667	0	0	0	0	0	0	0	0	0	-1.61902	11.2992	-0.931207	1.46543	0	-0.308944	-0.387408	2.70373	-0.222824
1.825	0	0	0	0	0	0	0	0	0	-11.5553	38.096	-0.680623	1.44515	0	-0.382922	-0.396164	1.30609	-0.0233346
1.83333	0	0	0	0	0	0	0	0	0	-43.8785	116.838	4.30843	1.42251	0	-0.386495	0.248633	-0.662052	-0.0244133
1.84167	0	0	0	0	0	0	0	0	0	-108.51	278.269	18.4133	1.41699	0	-0.381646	1.14145	-2.92718	-0.193694
1.85	0	0	0	0	0	0	0	0	0	-182.715	506.441	41.7835	1.41276	0	-0.37582	1.84346	-5.10961	-0.421564
1.85833	0	0	0	0	0	0	0	0	0	-215.703	749.291	64.8625	1.39357	0	-0.370547	1.92265	-6.67872	-0.578144
1.86667	0	0	0	0	0	0	0	0	0	-203.328	989.4	72.1523	1.35418	0	-0.366362	1.41845	-6.90221	-0.503345
1.875	0	0	0	0	0	0	0	0	0	-192.375	1223.76	56.6604	1.31151	0	-0.36327	0.843045	-5.36287	-0.248303
1.88333	0	0	0	0	0	0	0	0	0	-198.161	1433.84	27.5808	1.27759	0	-0.36001	0.334568	-2.42084	-0.0465665
1.89167	0	0	0	0	0	0	0	0	0	-198.259	1613.21	0.267495	1.24692	0	-0.355936	-0.142982	1.16342	0.000192914
1.9	0	0	0	0	0	0	0	0	0	-170.075	1762.14	-17.3496	1.21261	0	-0.351898	-0.446837	4.62966	-0.0455825
1.90833	0	0	0	0	0	0	0	0	0	-114.547	1867.36	-26.4725	1.17632	0	-0.349029	-0.454353	7.40693	-0.105004
